<mxfile host="app.diagrams.net" agent="Mozilla/5.0 (Windows NT 10.0; Win64; x64) AppleWebKit/537.36 (KHTML, like Gecko) Chrome/128.0.0.0 Whale/3.28.266.14 Safari/537.36" version="24.8.3">
  <diagram name="페이지-1" id="BWNWwhm04oQ_xkrSz_Qr">
    <mxGraphModel dx="1434" dy="757" grid="1" gridSize="10" guides="1" tooltips="1" connect="1" arrows="1" fold="1" page="1" pageScale="1" pageWidth="827" pageHeight="1169" math="0" shadow="0">
      <root>
        <mxCell id="0" />
        <mxCell id="1" parent="0" />
        <mxCell id="-xBcHta2ekIo3aQ20Qg4-1" value="집을 나선다" style="rounded=1;whiteSpace=wrap;html=1;" vertex="1" parent="1">
          <mxGeometry x="360" y="340" width="120" height="60" as="geometry" />
        </mxCell>
        <mxCell id="-xBcHta2ekIo3aQ20Qg4-2" value="오후 7시가 되었는가?" style="rhombus;whiteSpace=wrap;html=1;" vertex="1" parent="1">
          <mxGeometry x="360" y="210" width="120" height="80" as="geometry" />
        </mxCell>
        <mxCell id="-xBcHta2ekIo3aQ20Qg4-3" value="" style="endArrow=classic;html=1;rounded=0;exitX=0.5;exitY=1;exitDx=0;exitDy=0;entryX=0.5;entryY=0;entryDx=0;entryDy=0;" edge="1" parent="1" source="-xBcHta2ekIo3aQ20Qg4-2" target="-xBcHta2ekIo3aQ20Qg4-1">
          <mxGeometry width="50" height="50" relative="1" as="geometry">
            <mxPoint x="390" y="420" as="sourcePoint" />
            <mxPoint x="440" y="370" as="targetPoint" />
          </mxGeometry>
        </mxCell>
        <mxCell id="-xBcHta2ekIo3aQ20Qg4-4" value="예" style="text;html=1;align=center;verticalAlign=middle;whiteSpace=wrap;rounded=0;" vertex="1" parent="1">
          <mxGeometry x="400" y="300" width="60" height="30" as="geometry" />
        </mxCell>
        <mxCell id="-xBcHta2ekIo3aQ20Qg4-5" value="" style="endArrow=classic;html=1;rounded=0;exitX=1;exitY=0.5;exitDx=0;exitDy=0;" edge="1" parent="1" source="-xBcHta2ekIo3aQ20Qg4-2">
          <mxGeometry width="50" height="50" relative="1" as="geometry">
            <mxPoint x="390" y="420" as="sourcePoint" />
            <mxPoint x="510" y="250" as="targetPoint" />
          </mxGeometry>
        </mxCell>
        <mxCell id="-xBcHta2ekIo3aQ20Qg4-6" value="아니요" style="text;html=1;align=center;verticalAlign=middle;whiteSpace=wrap;rounded=0;" vertex="1" parent="1">
          <mxGeometry x="460" y="220" width="60" height="30" as="geometry" />
        </mxCell>
        <mxCell id="-xBcHta2ekIo3aQ20Qg4-7" value="pass" style="text;html=1;align=center;verticalAlign=middle;whiteSpace=wrap;rounded=0;" vertex="1" parent="1">
          <mxGeometry x="500" y="235" width="60" height="30" as="geometry" />
        </mxCell>
        <mxCell id="-xBcHta2ekIo3aQ20Qg4-8" value="" style="endArrow=classic;html=1;rounded=0;exitX=0.5;exitY=1;exitDx=0;exitDy=0;" edge="1" parent="1" source="-xBcHta2ekIo3aQ20Qg4-1">
          <mxGeometry width="50" height="50" relative="1" as="geometry">
            <mxPoint x="390" y="420" as="sourcePoint" />
            <mxPoint x="420" y="440" as="targetPoint" />
          </mxGeometry>
        </mxCell>
        <mxCell id="-xBcHta2ekIo3aQ20Qg4-9" value="정류장에 도착한다." style="rounded=1;whiteSpace=wrap;html=1;" vertex="1" parent="1">
          <mxGeometry x="360" y="440" width="120" height="60" as="geometry" />
        </mxCell>
        <mxCell id="-xBcHta2ekIo3aQ20Qg4-10" value="" style="endArrow=classic;html=1;rounded=0;exitX=0.5;exitY=1;exitDx=0;exitDy=0;" edge="1" parent="1">
          <mxGeometry width="50" height="50" relative="1" as="geometry">
            <mxPoint x="419.5" y="500" as="sourcePoint" />
            <mxPoint x="419.5" y="540" as="targetPoint" />
          </mxGeometry>
        </mxCell>
        <mxCell id="-xBcHta2ekIo3aQ20Qg4-12" value="구로 6번버스가 &lt;br&gt;도착하였는가?" style="rhombus;whiteSpace=wrap;html=1;" vertex="1" parent="1">
          <mxGeometry x="360" y="540" width="120" height="80" as="geometry" />
        </mxCell>
        <mxCell id="-xBcHta2ekIo3aQ20Qg4-13" value="" style="endArrow=classic;html=1;rounded=0;exitX=1;exitY=0.5;exitDx=0;exitDy=0;" edge="1" parent="1">
          <mxGeometry width="50" height="50" relative="1" as="geometry">
            <mxPoint x="480" y="580" as="sourcePoint" />
            <mxPoint x="510" y="580" as="targetPoint" />
          </mxGeometry>
        </mxCell>
        <mxCell id="-xBcHta2ekIo3aQ20Qg4-14" value="아니요" style="text;html=1;align=center;verticalAlign=middle;whiteSpace=wrap;rounded=0;" vertex="1" parent="1">
          <mxGeometry x="460" y="550" width="60" height="30" as="geometry" />
        </mxCell>
        <mxCell id="-xBcHta2ekIo3aQ20Qg4-16" value="계속 기다린다. (while)" style="rounded=1;whiteSpace=wrap;html=1;" vertex="1" parent="1">
          <mxGeometry x="510" y="555" width="120" height="60" as="geometry" />
        </mxCell>
        <mxCell id="-xBcHta2ekIo3aQ20Qg4-18" value="" style="endArrow=classic;html=1;rounded=0;exitX=0.5;exitY=1;exitDx=0;exitDy=0;entryX=0.5;entryY=0;entryDx=0;entryDy=0;" edge="1" parent="1">
          <mxGeometry width="50" height="50" relative="1" as="geometry">
            <mxPoint x="420" y="620" as="sourcePoint" />
            <mxPoint x="420" y="670" as="targetPoint" />
          </mxGeometry>
        </mxCell>
        <mxCell id="-xBcHta2ekIo3aQ20Qg4-19" value="예" style="text;html=1;align=center;verticalAlign=middle;whiteSpace=wrap;rounded=0;" vertex="1" parent="1">
          <mxGeometry x="400" y="630" width="60" height="30" as="geometry" />
        </mxCell>
        <mxCell id="-xBcHta2ekIo3aQ20Qg4-20" value="버스에 탑승한다." style="rounded=1;whiteSpace=wrap;html=1;" vertex="1" parent="1">
          <mxGeometry x="360" y="670" width="120" height="60" as="geometry" />
        </mxCell>
        <mxCell id="-xBcHta2ekIo3aQ20Qg4-21" value="" style="endArrow=classic;html=1;rounded=0;exitX=0.5;exitY=1;exitDx=0;exitDy=0;" edge="1" parent="1">
          <mxGeometry width="50" height="50" relative="1" as="geometry">
            <mxPoint x="419.5" y="730" as="sourcePoint" />
            <mxPoint x="419.5" y="770" as="targetPoint" />
          </mxGeometry>
        </mxCell>
        <mxCell id="-xBcHta2ekIo3aQ20Qg4-22" value="마젤란아파트앞&lt;br&gt;버스정류장에 도착하였는가?" style="rhombus;whiteSpace=wrap;html=1;" vertex="1" parent="1">
          <mxGeometry x="330" y="770" width="180" height="80" as="geometry" />
        </mxCell>
        <mxCell id="-xBcHta2ekIo3aQ20Qg4-23" value="" style="endArrow=classic;html=1;rounded=0;exitX=1;exitY=0.5;exitDx=0;exitDy=0;" edge="1" parent="1" source="-xBcHta2ekIo3aQ20Qg4-22">
          <mxGeometry width="50" height="50" relative="1" as="geometry">
            <mxPoint x="560" y="790" as="sourcePoint" />
            <mxPoint x="570" y="810" as="targetPoint" />
          </mxGeometry>
        </mxCell>
        <mxCell id="-xBcHta2ekIo3aQ20Qg4-24" value="" style="endArrow=classic;html=1;rounded=0;exitX=0;exitY=0.5;exitDx=0;exitDy=0;" edge="1" parent="1" source="-xBcHta2ekIo3aQ20Qg4-22">
          <mxGeometry width="50" height="50" relative="1" as="geometry">
            <mxPoint x="560" y="790" as="sourcePoint" />
            <mxPoint x="270" y="810" as="targetPoint" />
          </mxGeometry>
        </mxCell>
        <mxCell id="-xBcHta2ekIo3aQ20Qg4-25" value="예" style="text;html=1;align=center;verticalAlign=middle;whiteSpace=wrap;rounded=0;" vertex="1" parent="1">
          <mxGeometry x="280" y="780" width="60" height="30" as="geometry" />
        </mxCell>
        <mxCell id="-xBcHta2ekIo3aQ20Qg4-26" value="아니요" style="text;html=1;align=center;verticalAlign=middle;whiteSpace=wrap;rounded=0;" vertex="1" parent="1">
          <mxGeometry x="510" y="780" width="60" height="30" as="geometry" />
        </mxCell>
        <mxCell id="-xBcHta2ekIo3aQ20Qg4-27" value="계속 기다린다. (while)" style="rounded=1;whiteSpace=wrap;html=1;" vertex="1" parent="1">
          <mxGeometry x="570" y="780" width="120" height="60" as="geometry" />
        </mxCell>
        <mxCell id="-xBcHta2ekIo3aQ20Qg4-28" value="하차처리한다." style="rounded=1;whiteSpace=wrap;html=1;" vertex="1" parent="1">
          <mxGeometry x="150" y="780" width="120" height="60" as="geometry" />
        </mxCell>
        <mxCell id="-xBcHta2ekIo3aQ20Qg4-29" value="" style="endArrow=classic;html=1;rounded=0;exitX=0.5;exitY=1;exitDx=0;exitDy=0;" edge="1" parent="1" source="-xBcHta2ekIo3aQ20Qg4-28">
          <mxGeometry width="50" height="50" relative="1" as="geometry">
            <mxPoint x="560" y="590" as="sourcePoint" />
            <mxPoint x="210" y="880" as="targetPoint" />
          </mxGeometry>
        </mxCell>
        <mxCell id="-xBcHta2ekIo3aQ20Qg4-30" value="학원에 도착한다." style="rounded=1;whiteSpace=wrap;html=1;" vertex="1" parent="1">
          <mxGeometry x="150" y="880" width="120" height="60" as="geometry" />
        </mxCell>
      </root>
    </mxGraphModel>
  </diagram>
</mxfile>
